<svg xmlns="http://www.w3.org/2000/svg" width="760" height="424" viewBox="0 0 760 424">
  <rect width="760" height="424" fill="#ffffff" />
  <text x="20" y="26" font-size="17" font-weight="700" fill="#0d1b2a" style="font-family:Arial,Helvetica,sans-serif">Score de fun par parti (/100)</text>
  <text x="20" y="44" font-size="12" fill="#5a6b7a" style="font-family:Arial,Helvetica,sans-serif">Formule composite section 27 — outil comparatif, pas une mesure du plaisir humain</text>
  
    <text x="190" y="80" text-anchor="end" font-size="12" fill="#1c2b3a" style="font-family:Arial,Helvetica,sans-serif">ecologistes</text>
    <rect x="200" y="62" width="470.0" height="28" fill="#3b6ea5" rx="3" />
    <text x="678" y="80" font-size="12" fill="#1c2b3a" style="font-family:Arial,Helvetica,sans-serif">78.1</text>
    <text x="190" y="118" text-anchor="end" font-size="12" fill="#1c2b3a" style="font-family:Arial,Helvetica,sans-serif">lfi</text>
    <rect x="200" y="100" width="412.8" height="28" fill="#3b6ea5" rx="3" />
    <text x="620.8297055057618" y="118" font-size="12" fill="#1c2b3a" style="font-family:Arial,Helvetica,sans-serif">68.6</text>
    <text x="190" y="156" text-anchor="end" font-size="12" fill="#1c2b3a" style="font-family:Arial,Helvetica,sans-serif">nouvelle_energie</text>
    <rect x="200" y="138" width="408.0" height="28" fill="#3b6ea5" rx="3" />
    <text x="616.0153649167734" y="156" font-size="12" fill="#1c2b3a" style="font-family:Arial,Helvetica,sans-serif">67.8</text>
    <text x="190" y="194" text-anchor="end" font-size="12" fill="#1c2b3a" style="font-family:Arial,Helvetica,sans-serif">reconquete</text>
    <rect x="200" y="176" width="367.1" height="28" fill="#3b6ea5" rx="3" />
    <text x="575.0934699103714" y="194" font-size="12" fill="#1c2b3a" style="font-family:Arial,Helvetica,sans-serif">61.0</text>
    <text x="190" y="232" text-anchor="end" font-size="12" fill="#1c2b3a" style="font-family:Arial,Helvetica,sans-serif">lr</text>
    <rect x="200" y="214" width="364.7" height="28" fill="#3b6ea5" rx="3" />
    <text x="572.6862996158771" y="232" font-size="12" fill="#1c2b3a" style="font-family:Arial,Helvetica,sans-serif">60.6</text>
    <text x="190" y="270" text-anchor="end" font-size="12" fill="#1c2b3a" style="font-family:Arial,Helvetica,sans-serif">rn</text>
    <rect x="200" y="252" width="353.3" height="28" fill="#3b6ea5" rx="3" />
    <text x="561.2522407170295" y="270" font-size="12" fill="#1c2b3a" style="font-family:Arial,Helvetica,sans-serif">58.7</text>
    <text x="190" y="308" text-anchor="end" font-size="12" fill="#1c2b3a" style="font-family:Arial,Helvetica,sans-serif">ps</text>
    <rect x="200" y="290" width="346.6" height="28" fill="#3b6ea5" rx="3" />
    <text x="554.6325224071703" y="308" font-size="12" fill="#1c2b3a" style="font-family:Arial,Helvetica,sans-serif">57.6</text>
    <text x="190" y="346" text-anchor="end" font-size="12" fill="#1c2b3a" style="font-family:Arial,Helvetica,sans-serif">renaissance</text>
    <rect x="200" y="328" width="342.4" height="28" fill="#3b6ea5" rx="3" />
    <text x="550.4199743918055" y="346" font-size="12" fill="#1c2b3a" style="font-family:Arial,Helvetica,sans-serif">56.9</text>
    <text x="190" y="384" text-anchor="end" font-size="12" fill="#1c2b3a" style="font-family:Arial,Helvetica,sans-serif">horizons</text>
    <rect x="200" y="366" width="296.7" height="28" fill="#3b6ea5" rx="3" />
    <text x="504.68373879641484" y="384" font-size="12" fill="#1c2b3a" style="font-family:Arial,Helvetica,sans-serif">49.3</text>
</svg>