<svg xmlns="http://www.w3.org/2000/svg" width="620" height="480" viewBox="0 0 620 480">
  <rect width="620" height="480" fill="#ffffff" />
  <text x="20" y="26" font-size="17" font-weight="700" fill="#0d1b2a" style="font-family:Arial,Helvetica,sans-serif">Trajectoires de sondage (parti) — échantillon représentatif</text>
  <text x="20" y="44" font-size="12" fill="#5a6b7a" style="font-family:Arial,Helvetica,sans-serif">n = 398 parties · commit 12633fc · 12 parties, une couleur par partie, un point par décision</text>
  <line x1="60" y1="430" x2="590" y2="430" stroke="#c7d0d8" />
  <line x1="60" y1="60" x2="60" y2="430" stroke="#c7d0d8" />
  <text x="325" y="468" font-size="12" text-anchor="middle" fill="#1c2b3a" style="font-family:Arial,Helvetica,sans-serif">Index de décision</text>
  <text x="16" y="245" font-size="12" text-anchor="middle" fill="#1c2b3a" style="font-family:Arial,Helvetica,sans-serif" transform="rotate(-90 16 245)">Sondage du parti (%)</text>
  <circle cx="60.0" cy="325.4" r="3" fill="#3b6ea5" fill-opacity="0.55" /><circle cx="77.7" cy="320.4" r="3" fill="#3b6ea5" fill-opacity="0.55" /><circle cx="95.3" cy="319.1" r="3" fill="#3b6ea5" fill-opacity="0.55" /><circle cx="113.0" cy="325.9" r="3" fill="#3b6ea5" fill-opacity="0.55" /><circle cx="130.7" cy="316.1" r="3" fill="#3b6ea5" fill-opacity="0.55" /><circle cx="148.3" cy="314.3" r="3" fill="#3b6ea5" fill-opacity="0.55" /><circle cx="166.0" cy="313.3" r="3" fill="#3b6ea5" fill-opacity="0.55" /><circle cx="183.7" cy="352.0" r="3" fill="#3b6ea5" fill-opacity="0.55" /><circle cx="201.3" cy="334.1" r="3" fill="#3b6ea5" fill-opacity="0.55" /><circle cx="219.0" cy="335.9" r="3" fill="#3b6ea5" fill-opacity="0.55" /><circle cx="236.7" cy="331.4" r="3" fill="#3b6ea5" fill-opacity="0.55" /><circle cx="254.3" cy="372.2" r="3" fill="#3b6ea5" fill-opacity="0.55" /><circle cx="272.0" cy="323.0" r="3" fill="#3b6ea5" fill-opacity="0.55" /><circle cx="289.7" cy="344.6" r="3" fill="#3b6ea5" fill-opacity="0.55" /><circle cx="307.3" cy="353.6" r="3" fill="#3b6ea5" fill-opacity="0.55" /><circle cx="325.0" cy="320.2" r="3" fill="#3b6ea5" fill-opacity="0.55" /><circle cx="342.7" cy="360.6" r="3" fill="#3b6ea5" fill-opacity="0.55" /><circle cx="360.3" cy="360.6" r="3" fill="#3b6ea5" fill-opacity="0.55" /><circle cx="378.0" cy="360.0" r="3" fill="#3b6ea5" fill-opacity="0.55" /><circle cx="395.7" cy="404.0" r="3" fill="#3b6ea5" fill-opacity="0.55" /><circle cx="413.3" cy="358.5" r="3" fill="#3b6ea5" fill-opacity="0.55" /><circle cx="431.0" cy="370.4" r="3" fill="#3b6ea5" fill-opacity="0.55" /><circle cx="448.7" cy="374.9" r="3" fill="#3b6ea5" fill-opacity="0.55" /><circle cx="466.3" cy="372.9" r="3" fill="#3b6ea5" fill-opacity="0.55" /><circle cx="484.0" cy="372.6" r="3" fill="#3b6ea5" fill-opacity="0.55" /><circle cx="60.0" cy="334.2" r="3" fill="#5a9367" fill-opacity="0.55" /><circle cx="77.7" cy="327.9" r="3" fill="#5a9367" fill-opacity="0.55" /><circle cx="95.3" cy="310.4" r="3" fill="#5a9367" fill-opacity="0.55" /><circle cx="113.0" cy="409.8" r="3" fill="#5a9367" fill-opacity="0.55" /><circle cx="130.7" cy="292.9" r="3" fill="#5a9367" fill-opacity="0.55" /><circle cx="148.3" cy="288.0" r="3" fill="#5a9367" fill-opacity="0.55" /><circle cx="166.0" cy="285.0" r="3" fill="#5a9367" fill-opacity="0.55" /><circle cx="183.7" cy="282.6" r="3" fill="#5a9367" fill-opacity="0.55" /><circle cx="201.3" cy="285.5" r="3" fill="#5a9367" fill-opacity="0.55" /><circle cx="219.0" cy="285.6" r="3" fill="#5a9367" fill-opacity="0.55" /><circle cx="236.7" cy="280.3" r="3" fill="#5a9367" fill-opacity="0.55" /><circle cx="254.3" cy="366.4" r="3" fill="#5a9367" fill-opacity="0.55" /><circle cx="272.0" cy="280.1" r="3" fill="#5a9367" fill-opacity="0.55" /><circle cx="289.7" cy="271.0" r="3" fill="#5a9367" fill-opacity="0.55" /><circle cx="307.3" cy="268.0" r="3" fill="#5a9367" fill-opacity="0.55" /><circle cx="325.0" cy="320.2" r="3" fill="#5a9367" fill-opacity="0.55" /><circle cx="342.7" cy="260.8" r="3" fill="#5a9367" fill-opacity="0.55" /><circle cx="360.3" cy="276.5" r="3" fill="#5a9367" fill-opacity="0.55" /><circle cx="378.0" cy="277.6" r="3" fill="#5a9367" fill-opacity="0.55" /><circle cx="395.7" cy="366.4" r="3" fill="#5a9367" fill-opacity="0.55" /><circle cx="413.3" cy="281.3" r="3" fill="#5a9367" fill-opacity="0.55" /><circle cx="431.0" cy="268.0" r="3" fill="#5a9367" fill-opacity="0.55" /><circle cx="448.7" cy="256.2" r="3" fill="#5a9367" fill-opacity="0.55" /><circle cx="466.3" cy="245.2" r="3" fill="#5a9367" fill-opacity="0.55" /><circle cx="484.0" cy="239.0" r="3" fill="#5a9367" fill-opacity="0.55" /><circle cx="501.7" cy="228.8" r="3" fill="#5a9367" fill-opacity="0.55" /><circle cx="519.3" cy="223.3" r="3" fill="#5a9367" fill-opacity="0.55" /><circle cx="537.0" cy="325.9" r="3" fill="#5a9367" fill-opacity="0.55" /><circle cx="554.7" cy="228.3" r="3" fill="#5a9367" fill-opacity="0.55" /><circle cx="572.3" cy="229.7" r="3" fill="#5a9367" fill-opacity="0.55" /><circle cx="590.0" cy="227.3" r="3" fill="#5a9367" fill-opacity="0.55" /><circle cx="60.0" cy="334.2" r="3" fill="#c9a24b" fill-opacity="0.55" /><circle cx="77.7" cy="327.9" r="3" fill="#c9a24b" fill-opacity="0.55" /><circle cx="95.3" cy="310.4" r="3" fill="#c9a24b" fill-opacity="0.55" /><circle cx="113.0" cy="409.8" r="3" fill="#c9a24b" fill-opacity="0.55" /><circle cx="130.7" cy="296.5" r="3" fill="#c9a24b" fill-opacity="0.55" /><circle cx="148.3" cy="290.6" r="3" fill="#c9a24b" fill-opacity="0.55" /><circle cx="166.0" cy="287.1" r="3" fill="#c9a24b" fill-opacity="0.55" /><circle cx="183.7" cy="285.5" r="3" fill="#c9a24b" fill-opacity="0.55" /><circle cx="201.3" cy="279.2" r="3" fill="#c9a24b" fill-opacity="0.55" /><circle cx="219.0" cy="276.1" r="3" fill="#c9a24b" fill-opacity="0.55" /><circle cx="236.7" cy="269.6" r="3" fill="#c9a24b" fill-opacity="0.55" /><circle cx="254.3" cy="354.8" r="3" fill="#c9a24b" fill-opacity="0.55" /><circle cx="272.0" cy="261.0" r="3" fill="#c9a24b" fill-opacity="0.55" /><circle cx="289.7" cy="251.3" r="3" fill="#c9a24b" fill-opacity="0.55" /><circle cx="307.3" cy="248.1" r="3" fill="#c9a24b" fill-opacity="0.55" /><circle cx="325.0" cy="299.9" r="3" fill="#c9a24b" fill-opacity="0.55" /><circle cx="342.7" cy="237.5" r="3" fill="#c9a24b" fill-opacity="0.55" /><circle cx="360.3" cy="252.8" r="3" fill="#c9a24b" fill-opacity="0.55" /><circle cx="378.0" cy="260.1" r="3" fill="#c9a24b" fill-opacity="0.55" /><circle cx="395.7" cy="337.5" r="3" fill="#c9a24b" fill-opacity="0.55" /><circle cx="413.3" cy="249.8" r="3" fill="#c9a24b" fill-opacity="0.55" /><circle cx="431.0" cy="240.9" r="3" fill="#c9a24b" fill-opacity="0.55" /><circle cx="448.7" cy="237.5" r="3" fill="#c9a24b" fill-opacity="0.55" /><circle cx="466.3" cy="227.5" r="3" fill="#c9a24b" fill-opacity="0.55" /><circle cx="484.0" cy="223.7" r="3" fill="#c9a24b" fill-opacity="0.55" /><circle cx="501.7" cy="239.3" r="3" fill="#c9a24b" fill-opacity="0.55" /><circle cx="519.3" cy="239.1" r="3" fill="#c9a24b" fill-opacity="0.55" /><circle cx="537.0" cy="323.0" r="3" fill="#c9a24b" fill-opacity="0.55" /><circle cx="554.7" cy="220.4" r="3" fill="#c9a24b" fill-opacity="0.55" /><circle cx="572.3" cy="221.6" r="3" fill="#c9a24b" fill-opacity="0.55" /><circle cx="590.0" cy="219.0" r="3" fill="#c9a24b" fill-opacity="0.55" /><circle cx="60.0" cy="264.7" r="3" fill="#a5507a" fill-opacity="0.55" /><circle cx="77.7" cy="259.5" r="3" fill="#a5507a" fill-opacity="0.55" /><circle cx="95.3" cy="256.5" r="3" fill="#a5507a" fill-opacity="0.55" /><circle cx="113.0" cy="337.5" r="3" fill="#a5507a" fill-opacity="0.55" /><circle cx="130.7" cy="260.1" r="3" fill="#a5507a" fill-opacity="0.55" /><circle cx="148.3" cy="257.3" r="3" fill="#a5507a" fill-opacity="0.55" /><circle cx="166.0" cy="276.0" r="3" fill="#a5507a" fill-opacity="0.55" /><circle cx="183.7" cy="343.3" r="3" fill="#a5507a" fill-opacity="0.55" /><circle cx="201.3" cy="277.6" r="3" fill="#a5507a" fill-opacity="0.55" /><circle cx="219.0" cy="276.6" r="3" fill="#a5507a" fill-opacity="0.55" /><circle cx="236.7" cy="277.3" r="3" fill="#a5507a" fill-opacity="0.55" /><circle cx="254.3" cy="193.0" r="3" fill="#a5507a" fill-opacity="0.55" /><circle cx="272.0" cy="274.1" r="3" fill="#a5507a" fill-opacity="0.55" /><circle cx="289.7" cy="277.1" r="3" fill="#a5507a" fill-opacity="0.55" /><circle cx="307.3" cy="298.7" r="3" fill="#a5507a" fill-opacity="0.55" /><circle cx="325.0" cy="346.2" r="3" fill="#a5507a" fill-opacity="0.55" /><circle cx="342.7" cy="301.1" r="3" fill="#a5507a" fill-opacity="0.55" /><circle cx="360.3" cy="299.4" r="3" fill="#a5507a" fill-opacity="0.55" /><circle cx="378.0" cy="296.2" r="3" fill="#a5507a" fill-opacity="0.55" /><circle cx="395.7" cy="317.3" r="3" fill="#a5507a" fill-opacity="0.55" /><circle cx="413.3" cy="298.5" r="3" fill="#a5507a" fill-opacity="0.55" /><circle cx="431.0" cy="310.2" r="3" fill="#a5507a" fill-opacity="0.55" /><circle cx="448.7" cy="337.6" r="3" fill="#a5507a" fill-opacity="0.55" /><circle cx="466.3" cy="349.6" r="3" fill="#a5507a" fill-opacity="0.55" /><circle cx="484.0" cy="349.8" r="3" fill="#a5507a" fill-opacity="0.55" /><circle cx="60.0" cy="302.4" r="3" fill="#9aa5ad" fill-opacity="0.55" /><circle cx="77.7" cy="302.8" r="3" fill="#9aa5ad" fill-opacity="0.55" /><circle cx="95.3" cy="305.3" r="3" fill="#9aa5ad" fill-opacity="0.55" /><circle cx="113.0" cy="305.7" r="3" fill="#9aa5ad" fill-opacity="0.55" /><circle cx="130.7" cy="303.4" r="3" fill="#9aa5ad" fill-opacity="0.55" /><circle cx="148.3" cy="299.5" r="3" fill="#9aa5ad" fill-opacity="0.55" /><circle cx="166.0" cy="296.3" r="3" fill="#9aa5ad" fill-opacity="0.55" /><circle cx="183.7" cy="184.3" r="3" fill="#9aa5ad" fill-opacity="0.55" /><circle cx="201.3" cy="282.7" r="3" fill="#9aa5ad" fill-opacity="0.55" /><circle cx="219.0" cy="274.2" r="3" fill="#9aa5ad" fill-opacity="0.55" /><circle cx="236.7" cy="271.1" r="3" fill="#9aa5ad" fill-opacity="0.55" /><circle cx="254.3" cy="213.2" r="3" fill="#9aa5ad" fill-opacity="0.55" /><circle cx="272.0" cy="262.7" r="3" fill="#9aa5ad" fill-opacity="0.55" /><circle cx="289.7" cy="260.3" r="3" fill="#9aa5ad" fill-opacity="0.55" /><circle cx="307.3" cy="261.7" r="3" fill="#9aa5ad" fill-opacity="0.55" /><circle cx="325.0" cy="155.4" r="3" fill="#9aa5ad" fill-opacity="0.55" /><circle cx="342.7" cy="259.7" r="3" fill="#9aa5ad" fill-opacity="0.55" /><circle cx="360.3" cy="249.7" r="3" fill="#9aa5ad" fill-opacity="0.55" /><circle cx="378.0" cy="243.6" r="3" fill="#9aa5ad" fill-opacity="0.55" /><circle cx="395.7" cy="213.2" r="3" fill="#9aa5ad" fill-opacity="0.55" /><circle cx="413.3" cy="227.8" r="3" fill="#9aa5ad" fill-opacity="0.55" /><circle cx="431.0" cy="225.2" r="3" fill="#9aa5ad" fill-opacity="0.55" /><circle cx="448.7" cy="244.4" r="3" fill="#9aa5ad" fill-opacity="0.55" /><circle cx="466.3" cy="247.9" r="3" fill="#9aa5ad" fill-opacity="0.55" /><circle cx="484.0" cy="243.5" r="3" fill="#9aa5ad" fill-opacity="0.55" /><circle cx="501.7" cy="235.0" r="3" fill="#9aa5ad" fill-opacity="0.55" /><circle cx="519.3" cy="229.4" r="3" fill="#9aa5ad" fill-opacity="0.55" /><circle cx="537.0" cy="297.0" r="3" fill="#9aa5ad" fill-opacity="0.55" /><circle cx="554.7" cy="220.8" r="3" fill="#9aa5ad" fill-opacity="0.55" /><circle cx="572.3" cy="221.7" r="3" fill="#9aa5ad" fill-opacity="0.55" /><circle cx="590.0" cy="220.8" r="3" fill="#9aa5ad" fill-opacity="0.55" /><circle cx="60.0" cy="290.4" r="3" fill="#7a5ea8" fill-opacity="0.55" /><circle cx="77.7" cy="283.6" r="3" fill="#7a5ea8" fill-opacity="0.55" /><circle cx="95.3" cy="275.9" r="3" fill="#7a5ea8" fill-opacity="0.55" /><circle cx="113.0" cy="259.5" r="3" fill="#7a5ea8" fill-opacity="0.55" /><circle cx="130.7" cy="266.0" r="3" fill="#7a5ea8" fill-opacity="0.55" /><circle cx="148.3" cy="264.8" r="3" fill="#7a5ea8" fill-opacity="0.55" /><circle cx="166.0" cy="262.7" r="3" fill="#7a5ea8" fill-opacity="0.55" /><circle cx="183.7" cy="236.3" r="3" fill="#7a5ea8" fill-opacity="0.55" /><circle cx="201.3" cy="253.3" r="3" fill="#7a5ea8" fill-opacity="0.55" /><circle cx="219.0" cy="253.2" r="3" fill="#7a5ea8" fill-opacity="0.55" /><circle cx="236.7" cy="248.6" r="3" fill="#7a5ea8" fill-opacity="0.55" /><circle cx="254.3" cy="320.2" r="3" fill="#7a5ea8" fill-opacity="0.55" /><circle cx="272.0" cy="238.8" r="3" fill="#7a5ea8" fill-opacity="0.55" /><circle cx="289.7" cy="235.7" r="3" fill="#7a5ea8" fill-opacity="0.55" /><circle cx="307.3" cy="229.8" r="3" fill="#7a5ea8" fill-opacity="0.55" /><circle cx="325.0" cy="302.8" r="3" fill="#7a5ea8" fill-opacity="0.55" /><circle cx="342.7" cy="218.3" r="3" fill="#7a5ea8" fill-opacity="0.55" /><circle cx="360.3" cy="220.0" r="3" fill="#7a5ea8" fill-opacity="0.55" /><circle cx="378.0" cy="222.0" r="3" fill="#7a5ea8" fill-opacity="0.55" /><circle cx="395.7" cy="314.4" r="3" fill="#7a5ea8" fill-opacity="0.55" /><circle cx="413.3" cy="215.6" r="3" fill="#7a5ea8" fill-opacity="0.55" /><circle cx="431.0" cy="217.0" r="3" fill="#7a5ea8" fill-opacity="0.55" /><circle cx="448.7" cy="216.0" r="3" fill="#7a5ea8" fill-opacity="0.55" /><circle cx="466.3" cy="209.9" r="3" fill="#7a5ea8" fill-opacity="0.55" /><circle cx="484.0" cy="207.7" r="3" fill="#7a5ea8" fill-opacity="0.55" /><circle cx="501.7" cy="207.0" r="3" fill="#7a5ea8" fill-opacity="0.55" /><circle cx="519.3" cy="203.5" r="3" fill="#7a5ea8" fill-opacity="0.55" /><circle cx="537.0" cy="161.2" r="3" fill="#7a5ea8" fill-opacity="0.55" /><circle cx="554.7" cy="198.4" r="3" fill="#7a5ea8" fill-opacity="0.55" /><circle cx="572.3" cy="205.3" r="3" fill="#7a5ea8" fill-opacity="0.55" /><circle cx="590.0" cy="204.3" r="3" fill="#7a5ea8" fill-opacity="0.55" /><circle cx="60.0" cy="301.9" r="3" fill="#e08e45" fill-opacity="0.55" /><circle cx="77.7" cy="300.6" r="3" fill="#e08e45" fill-opacity="0.55" /><circle cx="95.3" cy="299.1" r="3" fill="#e08e45" fill-opacity="0.55" /><circle cx="113.0" cy="291.3" r="3" fill="#e08e45" fill-opacity="0.55" /><circle cx="130.7" cy="286.3" r="3" fill="#e08e45" fill-opacity="0.55" /><circle cx="148.3" cy="281.0" r="3" fill="#e08e45" fill-opacity="0.55" /><circle cx="166.0" cy="282.1" r="3" fill="#e08e45" fill-opacity="0.55" /><circle cx="183.7" cy="291.3" r="3" fill="#e08e45" fill-opacity="0.55" /><circle cx="201.3" cy="277.8" r="3" fill="#e08e45" fill-opacity="0.55" /><circle cx="219.0" cy="278.4" r="3" fill="#e08e45" fill-opacity="0.55" /><circle cx="236.7" cy="278.9" r="3" fill="#e08e45" fill-opacity="0.55" /><circle cx="254.3" cy="285.5" r="3" fill="#e08e45" fill-opacity="0.55" /><circle cx="272.0" cy="275.6" r="3" fill="#e08e45" fill-opacity="0.55" /><circle cx="289.7" cy="271.5" r="3" fill="#e08e45" fill-opacity="0.55" /><circle cx="307.3" cy="269.9" r="3" fill="#e08e45" fill-opacity="0.55" /><circle cx="325.0" cy="239.2" r="3" fill="#e08e45" fill-opacity="0.55" /><circle cx="342.7" cy="259.8" r="3" fill="#e08e45" fill-opacity="0.55" /><circle cx="360.3" cy="264.0" r="3" fill="#e08e45" fill-opacity="0.55" /><circle cx="378.0" cy="266.0" r="3" fill="#e08e45" fill-opacity="0.55" /><circle cx="395.7" cy="305.7" r="3" fill="#e08e45" fill-opacity="0.55" /><circle cx="413.3" cy="263.2" r="3" fill="#e08e45" fill-opacity="0.55" /><circle cx="431.0" cy="262.0" r="3" fill="#e08e45" fill-opacity="0.55" /><circle cx="448.7" cy="257.2" r="3" fill="#e08e45" fill-opacity="0.55" /><circle cx="466.3" cy="254.7" r="3" fill="#e08e45" fill-opacity="0.55" /><circle cx="484.0" cy="247.9" r="3" fill="#e08e45" fill-opacity="0.55" /><circle cx="501.7" cy="248.6" r="3" fill="#e08e45" fill-opacity="0.55" /><circle cx="519.3" cy="245.9" r="3" fill="#e08e45" fill-opacity="0.55" /><circle cx="537.0" cy="282.6" r="3" fill="#e08e45" fill-opacity="0.55" /><circle cx="554.7" cy="223.4" r="3" fill="#e08e45" fill-opacity="0.55" /><circle cx="60.0" cy="303.6" r="3" fill="#3a9ba0" fill-opacity="0.55" /><circle cx="77.7" cy="302.0" r="3" fill="#3a9ba0" fill-opacity="0.55" /><circle cx="95.3" cy="298.0" r="3" fill="#3a9ba0" fill-opacity="0.55" /><circle cx="113.0" cy="305.7" r="3" fill="#3a9ba0" fill-opacity="0.55" /><circle cx="130.7" cy="298.0" r="3" fill="#3a9ba0" fill-opacity="0.55" /><circle cx="148.3" cy="290.4" r="3" fill="#3a9ba0" fill-opacity="0.55" /><circle cx="166.0" cy="281.1" r="3" fill="#3a9ba0" fill-opacity="0.55" /><circle cx="183.7" cy="343.3" r="3" fill="#3a9ba0" fill-opacity="0.55" /><circle cx="201.3" cy="281.5" r="3" fill="#3a9ba0" fill-opacity="0.55" /><circle cx="219.0" cy="279.6" r="3" fill="#3a9ba0" fill-opacity="0.55" /><circle cx="236.7" cy="273.0" r="3" fill="#3a9ba0" fill-opacity="0.55" /><circle cx="254.3" cy="285.5" r="3" fill="#3a9ba0" fill-opacity="0.55" /><circle cx="272.0" cy="264.2" r="3" fill="#3a9ba0" fill-opacity="0.55" /><circle cx="289.7" cy="265.6" r="3" fill="#3a9ba0" fill-opacity="0.55" /><circle cx="307.3" cy="263.2" r="3" fill="#3a9ba0" fill-opacity="0.55" /><circle cx="325.0" cy="178.5" r="3" fill="#3a9ba0" fill-opacity="0.55" /><circle cx="342.7" cy="249.8" r="3" fill="#3a9ba0" fill-opacity="0.55" /><circle cx="360.3" cy="237.2" r="3" fill="#3a9ba0" fill-opacity="0.55" /><circle cx="378.0" cy="230.4" r="3" fill="#3a9ba0" fill-opacity="0.55" /><circle cx="395.7" cy="282.6" r="3" fill="#3a9ba0" fill-opacity="0.55" /><circle cx="413.3" cy="219.6" r="3" fill="#3a9ba0" fill-opacity="0.55" /><circle cx="431.0" cy="217.4" r="3" fill="#3a9ba0" fill-opacity="0.55" /><circle cx="448.7" cy="213.4" r="3" fill="#3a9ba0" fill-opacity="0.55" /><circle cx="466.3" cy="208.5" r="3" fill="#3a9ba0" fill-opacity="0.55" /><circle cx="484.0" cy="204.6" r="3" fill="#3a9ba0" fill-opacity="0.55" /><circle cx="501.7" cy="205.2" r="3" fill="#3a9ba0" fill-opacity="0.55" /><circle cx="519.3" cy="204.1" r="3" fill="#3a9ba0" fill-opacity="0.55" /><circle cx="537.0" cy="68.7" r="3" fill="#3a9ba0" fill-opacity="0.55" /><circle cx="554.7" cy="197.2" r="3" fill="#3a9ba0" fill-opacity="0.55" /><circle cx="60.0" cy="302.4" r="3" fill="#8a405d" fill-opacity="0.55" /><circle cx="77.7" cy="297.7" r="3" fill="#8a405d" fill-opacity="0.55" /><circle cx="95.3" cy="298.3" r="3" fill="#8a405d" fill-opacity="0.55" /><circle cx="113.0" cy="299.9" r="3" fill="#8a405d" fill-opacity="0.55" /><circle cx="130.7" cy="318.3" r="3" fill="#8a405d" fill-opacity="0.55" /><circle cx="148.3" cy="319.5" r="3" fill="#8a405d" fill-opacity="0.55" /><circle cx="166.0" cy="320.4" r="3" fill="#8a405d" fill-opacity="0.55" /><circle cx="183.7" cy="201.6" r="3" fill="#8a405d" fill-opacity="0.55" /><circle cx="201.3" cy="307.5" r="3" fill="#8a405d" fill-opacity="0.55" /><circle cx="219.0" cy="295.8" r="3" fill="#8a405d" fill-opacity="0.55" /><circle cx="236.7" cy="290.2" r="3" fill="#8a405d" fill-opacity="0.55" /><circle cx="254.3" cy="233.4" r="3" fill="#8a405d" fill-opacity="0.55" /><circle cx="272.0" cy="279.6" r="3" fill="#8a405d" fill-opacity="0.55" /><circle cx="289.7" cy="272.5" r="3" fill="#8a405d" fill-opacity="0.55" /><circle cx="307.3" cy="275.1" r="3" fill="#8a405d" fill-opacity="0.55" /><circle cx="325.0" cy="169.8" r="3" fill="#8a405d" fill-opacity="0.55" /><circle cx="342.7" cy="271.6" r="3" fill="#8a405d" fill-opacity="0.55" /><circle cx="360.3" cy="266.9" r="3" fill="#8a405d" fill-opacity="0.55" /><circle cx="378.0" cy="260.0" r="3" fill="#8a405d" fill-opacity="0.55" /><circle cx="395.7" cy="230.5" r="3" fill="#8a405d" fill-opacity="0.55" /><circle cx="413.3" cy="261.9" r="3" fill="#8a405d" fill-opacity="0.55" /><circle cx="431.0" cy="256.2" r="3" fill="#8a405d" fill-opacity="0.55" /><circle cx="448.7" cy="252.9" r="3" fill="#8a405d" fill-opacity="0.55" /><circle cx="466.3" cy="251.2" r="3" fill="#8a405d" fill-opacity="0.55" /><circle cx="484.0" cy="250.9" r="3" fill="#8a405d" fill-opacity="0.55" /><circle cx="60.0" cy="290.4" r="3" fill="#4a7c59" fill-opacity="0.55" /><circle cx="77.7" cy="286.0" r="3" fill="#4a7c59" fill-opacity="0.55" /><circle cx="95.3" cy="282.7" r="3" fill="#4a7c59" fill-opacity="0.55" /><circle cx="113.0" cy="265.2" r="3" fill="#4a7c59" fill-opacity="0.55" /><circle cx="130.7" cy="281.9" r="3" fill="#4a7c59" fill-opacity="0.55" /><circle cx="148.3" cy="281.2" r="3" fill="#4a7c59" fill-opacity="0.55" /><circle cx="166.0" cy="278.6" r="3" fill="#4a7c59" fill-opacity="0.55" /><circle cx="183.7" cy="245.0" r="3" fill="#4a7c59" fill-opacity="0.55" /><circle cx="201.3" cy="276.1" r="3" fill="#4a7c59" fill-opacity="0.55" /><circle cx="219.0" cy="278.8" r="3" fill="#4a7c59" fill-opacity="0.55" /><circle cx="236.7" cy="280.1" r="3" fill="#4a7c59" fill-opacity="0.55" /><circle cx="254.3" cy="360.6" r="3" fill="#4a7c59" fill-opacity="0.55" /><circle cx="272.0" cy="287.6" r="3" fill="#4a7c59" fill-opacity="0.55" /><circle cx="289.7" cy="314.1" r="3" fill="#4a7c59" fill-opacity="0.55" /><circle cx="307.3" cy="319.6" r="3" fill="#4a7c59" fill-opacity="0.55" /><circle cx="325.0" cy="383.8" r="3" fill="#4a7c59" fill-opacity="0.55" /><circle cx="342.7" cy="325.4" r="3" fill="#4a7c59" fill-opacity="0.55" /><circle cx="360.3" cy="322.8" r="3" fill="#4a7c59" fill-opacity="0.55" /><circle cx="378.0" cy="320.7" r="3" fill="#4a7c59" fill-opacity="0.55" /><circle cx="395.7" cy="430.0" r="3" fill="#4a7c59" fill-opacity="0.55" /><circle cx="413.3" cy="340.1" r="3" fill="#4a7c59" fill-opacity="0.55" /><circle cx="431.0" cy="338.3" r="3" fill="#4a7c59" fill-opacity="0.55" /><circle cx="448.7" cy="341.3" r="3" fill="#4a7c59" fill-opacity="0.55" /><circle cx="466.3" cy="347.6" r="3" fill="#4a7c59" fill-opacity="0.55" /><circle cx="484.0" cy="347.6" r="3" fill="#4a7c59" fill-opacity="0.55" /><circle cx="60.0" cy="296.4" r="3" fill="#b06a3b" fill-opacity="0.55" /><circle cx="77.7" cy="290.6" r="3" fill="#b06a3b" fill-opacity="0.55" /><circle cx="95.3" cy="286.8" r="3" fill="#b06a3b" fill-opacity="0.55" /><circle cx="113.0" cy="279.7" r="3" fill="#b06a3b" fill-opacity="0.55" /><circle cx="130.7" cy="270.0" r="3" fill="#b06a3b" fill-opacity="0.55" /><circle cx="148.3" cy="265.6" r="3" fill="#b06a3b" fill-opacity="0.55" /><circle cx="166.0" cy="267.0" r="3" fill="#b06a3b" fill-opacity="0.55" /><circle cx="183.7" cy="273.9" r="3" fill="#b06a3b" fill-opacity="0.55" /><circle cx="201.3" cy="251.5" r="3" fill="#b06a3b" fill-opacity="0.55" /><circle cx="219.0" cy="250.0" r="3" fill="#b06a3b" fill-opacity="0.55" /><circle cx="236.7" cy="246.6" r="3" fill="#b06a3b" fill-opacity="0.55" /><circle cx="254.3" cy="349.1" r="3" fill="#b06a3b" fill-opacity="0.55" /><circle cx="272.0" cy="234.4" r="3" fill="#b06a3b" fill-opacity="0.55" /><circle cx="289.7" cy="231.4" r="3" fill="#b06a3b" fill-opacity="0.55" /><circle cx="307.3" cy="227.9" r="3" fill="#b06a3b" fill-opacity="0.55" /><circle cx="325.0" cy="230.5" r="3" fill="#b06a3b" fill-opacity="0.55" /><circle cx="342.7" cy="227.5" r="3" fill="#b06a3b" fill-opacity="0.55" /><circle cx="360.3" cy="223.4" r="3" fill="#b06a3b" fill-opacity="0.55" /><circle cx="378.0" cy="222.1" r="3" fill="#b06a3b" fill-opacity="0.55" /><circle cx="395.7" cy="268.1" r="3" fill="#b06a3b" fill-opacity="0.55" /><circle cx="413.3" cy="212.2" r="3" fill="#b06a3b" fill-opacity="0.55" /><circle cx="431.0" cy="207.4" r="3" fill="#b06a3b" fill-opacity="0.55" /><circle cx="448.7" cy="201.6" r="3" fill="#b06a3b" fill-opacity="0.55" /><circle cx="466.3" cy="198.1" r="3" fill="#b06a3b" fill-opacity="0.55" /><circle cx="484.0" cy="197.2" r="3" fill="#b06a3b" fill-opacity="0.55" /><circle cx="501.7" cy="193.9" r="3" fill="#b06a3b" fill-opacity="0.55" /><circle cx="519.3" cy="191.4" r="3" fill="#b06a3b" fill-opacity="0.55" /><circle cx="537.0" cy="239.2" r="3" fill="#b06a3b" fill-opacity="0.55" /><circle cx="554.7" cy="202.5" r="3" fill="#b06a3b" fill-opacity="0.55" /><circle cx="60.0" cy="301.9" r="3" fill="#5a5a8a" fill-opacity="0.55" /><circle cx="77.7" cy="299.8" r="3" fill="#5a5a8a" fill-opacity="0.55" /><circle cx="95.3" cy="295.3" r="3" fill="#5a5a8a" fill-opacity="0.55" /><circle cx="113.0" cy="297.0" r="3" fill="#5a5a8a" fill-opacity="0.55" /><circle cx="130.7" cy="285.8" r="3" fill="#5a5a8a" fill-opacity="0.55" /><circle cx="148.3" cy="277.5" r="3" fill="#5a5a8a" fill-opacity="0.55" /><circle cx="166.0" cy="274.1" r="3" fill="#5a5a8a" fill-opacity="0.55" /><circle cx="183.7" cy="334.6" r="3" fill="#5a5a8a" fill-opacity="0.55" /><circle cx="201.3" cy="260.5" r="3" fill="#5a5a8a" fill-opacity="0.55" /><circle cx="219.0" cy="255.2" r="3" fill="#5a5a8a" fill-opacity="0.55" /><circle cx="236.7" cy="251.9" r="3" fill="#5a5a8a" fill-opacity="0.55" /><circle cx="254.3" cy="268.1" r="3" fill="#5a5a8a" fill-opacity="0.55" /><circle cx="272.0" cy="243.5" r="3" fill="#5a5a8a" fill-opacity="0.55" /><circle cx="289.7" cy="233.5" r="3" fill="#5a5a8a" fill-opacity="0.55" /><circle cx="307.3" cy="228.4" r="3" fill="#5a5a8a" fill-opacity="0.55" /><circle cx="325.0" cy="204.5" r="3" fill="#5a5a8a" fill-opacity="0.55" /><circle cx="342.7" cy="229.7" r="3" fill="#5a5a8a" fill-opacity="0.55" /><circle cx="360.3" cy="222.5" r="3" fill="#5a5a8a" fill-opacity="0.55" /><circle cx="378.0" cy="211.8" r="3" fill="#5a5a8a" fill-opacity="0.55" /><circle cx="395.7" cy="282.6" r="3" fill="#5a5a8a" fill-opacity="0.55" /><circle cx="413.3" cy="217.4" r="3" fill="#5a5a8a" fill-opacity="0.55" /><circle cx="431.0" cy="211.9" r="3" fill="#5a5a8a" fill-opacity="0.55" /><circle cx="448.7" cy="206.2" r="3" fill="#5a5a8a" fill-opacity="0.55" /><circle cx="466.3" cy="200.0" r="3" fill="#5a5a8a" fill-opacity="0.55" /><circle cx="484.0" cy="196.4" r="3" fill="#5a5a8a" fill-opacity="0.55" /><circle cx="501.7" cy="195.3" r="3" fill="#5a5a8a" fill-opacity="0.55" /><circle cx="519.3" cy="195.9" r="3" fill="#5a5a8a" fill-opacity="0.55" /><circle cx="537.0" cy="60.0" r="3" fill="#5a5a8a" fill-opacity="0.55" /><circle cx="554.7" cy="186.6" r="3" fill="#5a5a8a" fill-opacity="0.55" />
</svg>