<svg xmlns="http://www.w3.org/2000/svg" width="980" height="380" viewBox="0 0 980 380">
  <rect width="980" height="380" fill="#ffffff" />
  <text x="20" y="26" font-size="17" font-weight="700" fill="#0d1b2a" style="font-family:Arial,Helvetica,sans-serif">Trajectoire moyenne de sondage par agent (points, sonde à intervalles fixes)</text>
  <text x="20" y="44" font-size="12" fill="#5a6b7a" style="font-family:Arial,Helvetica,sans-serif">n = 5400 relevés · commit cc36407 · probe supplémentaire (9 partis × 8 agents × 15 graines)</text>
  <line x1="60" y1="290" x2="950" y2="290" stroke="#c7d0d8" />
  <rect x="77.8" y="109.9" width="15.8" height="180.1" fill="#3b6ea5" />
      <text x="86.7" y="105.9" font-size="9" text-anchor="middle" fill="#1c2b3a" style="font-family:Arial,Helvetica,sans-serif">11.4</text><rect x="95.6" y="113.8" width="15.8" height="176.2" fill="#5a9367" />
      <text x="104.5" y="109.8" font-size="9" text-anchor="middle" fill="#1c2b3a" style="font-family:Arial,Helvetica,sans-serif">11.2</text><rect x="113.4" y="112.3" width="15.8" height="177.7" fill="#c9a24b" />
      <text x="122.3" y="108.3" font-size="9" text-anchor="middle" fill="#1c2b3a" style="font-family:Arial,Helvetica,sans-serif">11.3</text><rect x="131.2" y="113.5" width="15.8" height="176.5" fill="#a5507a" />
      <text x="140.1" y="109.5" font-size="9" text-anchor="middle" fill="#1c2b3a" style="font-family:Arial,Helvetica,sans-serif">11.2</text><rect x="149.0" y="110.8" width="15.8" height="179.2" fill="#9aa5ad" />
      <text x="157.9" y="106.8" font-size="9" text-anchor="middle" fill="#1c2b3a" style="font-family:Arial,Helvetica,sans-serif">11.4</text><rect x="166.8" y="107.4" width="15.8" height="182.6" fill="#7a5ea8" />
      <text x="175.7" y="103.4" font-size="9" text-anchor="middle" fill="#1c2b3a" style="font-family:Arial,Helvetica,sans-serif">11.6</text><rect x="184.6" y="112.4" width="15.8" height="177.6" fill="#e08e45" />
      <text x="193.5" y="108.4" font-size="9" text-anchor="middle" fill="#1c2b3a" style="font-family:Arial,Helvetica,sans-serif">11.3</text><rect x="202.4" y="108.5" width="15.8" height="181.5" fill="#3a9ba0" />
      <text x="211.3" y="104.5" font-size="9" text-anchor="middle" fill="#1c2b3a" style="font-family:Arial,Helvetica,sans-serif">11.5</text>
    <text x="149.0" y="306.0" font-size="11" text-anchor="middle" fill="#1c2b3a" style="font-family:Arial,Helvetica,sans-serif" transform="rotate(20 149.0 306.0)">Décision 0</text><rect x="255.8" y="99.2" width="15.8" height="190.8" fill="#3b6ea5" />
      <text x="264.7" y="95.2" font-size="9" text-anchor="middle" fill="#1c2b3a" style="font-family:Arial,Helvetica,sans-serif">12.1</text><rect x="273.6" y="106.8" width="15.8" height="183.2" fill="#5a9367" />
      <text x="282.5" y="102.8" font-size="9" text-anchor="middle" fill="#1c2b3a" style="font-family:Arial,Helvetica,sans-serif">11.6</text><rect x="291.4" y="97.2" width="15.8" height="192.8" fill="#c9a24b" />
      <text x="300.3" y="93.2" font-size="9" text-anchor="middle" fill="#1c2b3a" style="font-family:Arial,Helvetica,sans-serif">12.3</text><rect x="309.2" y="103.1" width="15.8" height="186.9" fill="#a5507a" />
      <text x="318.1" y="99.1" font-size="9" text-anchor="middle" fill="#1c2b3a" style="font-family:Arial,Helvetica,sans-serif">11.9</text><rect x="327.0" y="100.3" width="15.8" height="189.7" fill="#9aa5ad" />
      <text x="335.9" y="96.3" font-size="9" text-anchor="middle" fill="#1c2b3a" style="font-family:Arial,Helvetica,sans-serif">12.1</text><rect x="344.8" y="100.1" width="15.8" height="189.9" fill="#7a5ea8" />
      <text x="353.7" y="96.1" font-size="9" text-anchor="middle" fill="#1c2b3a" style="font-family:Arial,Helvetica,sans-serif">12.1</text><rect x="362.6" y="95.9" width="15.8" height="194.1" fill="#e08e45" />
      <text x="371.5" y="91.9" font-size="9" text-anchor="middle" fill="#1c2b3a" style="font-family:Arial,Helvetica,sans-serif">12.3</text><rect x="380.4" y="95.4" width="15.8" height="194.6" fill="#3a9ba0" />
      <text x="389.3" y="91.4" font-size="9" text-anchor="middle" fill="#1c2b3a" style="font-family:Arial,Helvetica,sans-serif">12.4</text>
    <text x="327.0" y="306.0" font-size="11" text-anchor="middle" fill="#1c2b3a" style="font-family:Arial,Helvetica,sans-serif" transform="rotate(20 327.0 306.0)">Décision 5</text><rect x="433.8" y="90.5" width="15.8" height="199.5" fill="#3b6ea5" />
      <text x="442.7" y="86.5" font-size="9" text-anchor="middle" fill="#1c2b3a" style="font-family:Arial,Helvetica,sans-serif">12.7</text><rect x="451.6" y="106.9" width="15.8" height="183.1" fill="#5a9367" />
      <text x="460.5" y="102.9" font-size="9" text-anchor="middle" fill="#1c2b3a" style="font-family:Arial,Helvetica,sans-serif">11.6</text><rect x="469.4" y="82.5" width="15.8" height="207.5" fill="#c9a24b" />
      <text x="478.3" y="78.5" font-size="9" text-anchor="middle" fill="#1c2b3a" style="font-family:Arial,Helvetica,sans-serif">13.2</text><rect x="487.2" y="97.2" width="15.8" height="192.8" fill="#a5507a" />
      <text x="496.1" y="93.2" font-size="9" text-anchor="middle" fill="#1c2b3a" style="font-family:Arial,Helvetica,sans-serif">12.3</text><rect x="505.0" y="92.0" width="15.8" height="198.0" fill="#9aa5ad" />
      <text x="513.9" y="88.0" font-size="9" text-anchor="middle" fill="#1c2b3a" style="font-family:Arial,Helvetica,sans-serif">12.6</text><rect x="522.8" y="88.5" width="15.8" height="201.5" fill="#7a5ea8" />
      <text x="531.7" y="84.5" font-size="9" text-anchor="middle" fill="#1c2b3a" style="font-family:Arial,Helvetica,sans-serif">12.8</text><rect x="540.6" y="82.0" width="15.8" height="208.0" fill="#e08e45" />
      <text x="549.5" y="78.0" font-size="9" text-anchor="middle" fill="#1c2b3a" style="font-family:Arial,Helvetica,sans-serif">13.2</text><rect x="558.4" y="82.4" width="15.8" height="207.6" fill="#3a9ba0" />
      <text x="567.3" y="78.4" font-size="9" text-anchor="middle" fill="#1c2b3a" style="font-family:Arial,Helvetica,sans-serif">13.2</text>
    <text x="505.0" y="306.0" font-size="11" text-anchor="middle" fill="#1c2b3a" style="font-family:Arial,Helvetica,sans-serif" transform="rotate(20 505.0 306.0)">Décision 10</text><rect x="611.8" y="83.0" width="15.8" height="207.0" fill="#3b6ea5" />
      <text x="620.7" y="79.0" font-size="9" text-anchor="middle" fill="#1c2b3a" style="font-family:Arial,Helvetica,sans-serif">13.2</text><rect x="629.6" y="107.9" width="15.8" height="182.1" fill="#5a9367" />
      <text x="638.5" y="103.9" font-size="9" text-anchor="middle" fill="#1c2b3a" style="font-family:Arial,Helvetica,sans-serif">11.6</text><rect x="647.4" y="68.2" width="15.8" height="221.8" fill="#c9a24b" />
      <text x="656.3" y="64.2" font-size="9" text-anchor="middle" fill="#1c2b3a" style="font-family:Arial,Helvetica,sans-serif">14.1</text><rect x="665.2" y="93.5" width="15.8" height="196.5" fill="#a5507a" />
      <text x="674.1" y="89.5" font-size="9" text-anchor="middle" fill="#1c2b3a" style="font-family:Arial,Helvetica,sans-serif">12.5</text><rect x="683.0" y="85.0" width="15.8" height="205.0" fill="#9aa5ad" />
      <text x="691.9" y="81.0" font-size="9" text-anchor="middle" fill="#1c2b3a" style="font-family:Arial,Helvetica,sans-serif">13.0</text><rect x="700.8" y="79.4" width="15.8" height="210.6" fill="#7a5ea8" />
      <text x="709.7" y="75.4" font-size="9" text-anchor="middle" fill="#1c2b3a" style="font-family:Arial,Helvetica,sans-serif">13.4</text><rect x="718.6" y="72.1" width="15.8" height="217.9" fill="#e08e45" />
      <text x="727.5" y="68.1" font-size="9" text-anchor="middle" fill="#1c2b3a" style="font-family:Arial,Helvetica,sans-serif">13.8</text><rect x="736.4" y="71.5" width="15.8" height="218.5" fill="#3a9ba0" />
      <text x="745.3" y="67.5" font-size="9" text-anchor="middle" fill="#1c2b3a" style="font-family:Arial,Helvetica,sans-serif">13.9</text>
    <text x="683.0" y="306.0" font-size="11" text-anchor="middle" fill="#1c2b3a" style="font-family:Arial,Helvetica,sans-serif" transform="rotate(20 683.0 306.0)">Décision 15</text><rect x="789.8" y="77.8" width="15.8" height="212.2" fill="#3b6ea5" />
      <text x="798.7" y="73.8" font-size="9" text-anchor="middle" fill="#1c2b3a" style="font-family:Arial,Helvetica,sans-serif">13.5</text><rect x="807.6" y="106.3" width="15.8" height="183.7" fill="#5a9367" />
      <text x="816.5" y="102.3" font-size="9" text-anchor="middle" fill="#1c2b3a" style="font-family:Arial,Helvetica,sans-serif">11.7</text><rect x="825.4" y="60.0" width="15.8" height="230.0" fill="#c9a24b" />
      <text x="834.3" y="56.0" font-size="9" text-anchor="middle" fill="#1c2b3a" style="font-family:Arial,Helvetica,sans-serif">14.6</text><rect x="843.2" y="90.7" width="15.8" height="199.3" fill="#a5507a" />
      <text x="852.1" y="86.7" font-size="9" text-anchor="middle" fill="#1c2b3a" style="font-family:Arial,Helvetica,sans-serif">12.7</text><rect x="861.0" y="77.6" width="15.8" height="212.4" fill="#9aa5ad" />
      <text x="869.9" y="73.6" font-size="9" text-anchor="middle" fill="#1c2b3a" style="font-family:Arial,Helvetica,sans-serif">13.5</text><rect x="878.8" y="71.5" width="15.8" height="218.5" fill="#7a5ea8" />
      <text x="887.7" y="67.5" font-size="9" text-anchor="middle" fill="#1c2b3a" style="font-family:Arial,Helvetica,sans-serif">13.9</text><rect x="896.6" y="68.8" width="15.8" height="221.2" fill="#e08e45" />
      <text x="905.5" y="64.8" font-size="9" text-anchor="middle" fill="#1c2b3a" style="font-family:Arial,Helvetica,sans-serif">14.1</text><rect x="914.4" y="70.4" width="15.8" height="219.6" fill="#3a9ba0" />
      <text x="923.3" y="66.4" font-size="9" text-anchor="middle" fill="#1c2b3a" style="font-family:Arial,Helvetica,sans-serif">13.9</text>
    <text x="861.0" y="306.0" font-size="11" text-anchor="middle" fill="#1c2b3a" style="font-family:Arial,Helvetica,sans-serif" transform="rotate(20 861.0 306.0)">Décision 20</text>
  <rect x="60" y="356" width="12" height="12" fill="#3b6ea5" /><text x="78" y="366" font-size="11" fill="#1c2b3a" style="font-family:Arial,Helvetica,sans-serif">aleatoire</text><rect x="200" y="356" width="12" height="12" fill="#5a9367" /><text x="218" y="366" font-size="11" fill="#1c2b3a" style="font-family:Arial,Helvetica,sans-serif">contrarien</text><rect x="340" y="356" width="12" height="12" fill="#c9a24b" /><text x="358" y="366" font-size="11" fill="#1c2b3a" style="font-family:Arial,Helvetica,sans-serif">ideologiquement_coherent</text><rect x="480" y="356" width="12" height="12" fill="#a5507a" /><text x="498" y="366" font-size="11" fill="#1c2b3a" style="font-family:Arial,Helvetica,sans-serif">mediatique</text><rect x="620" y="356" width="12" height="12" fill="#9aa5ad" /><text x="638" y="366" font-size="11" fill="#1c2b3a" style="font-family:Arial,Helvetica,sans-serif">opportuniste_electoral</text><rect x="760" y="356" width="12" height="12" fill="#7a5ea8" /><text x="778" y="366" font-size="11" fill="#1c2b3a" style="font-family:Arial,Helvetica,sans-serif">parti_dabord</text><rect x="900" y="356" width="12" height="12" fill="#e08e45" /><text x="918" y="366" font-size="11" fill="#1c2b3a" style="font-family:Arial,Helvetica,sans-serif">prudent</text><rect x="1040" y="356" width="12" height="12" fill="#3a9ba0" /><text x="1058" y="366" font-size="11" fill="#1c2b3a" style="font-family:Arial,Helvetica,sans-serif">risque</text>
</svg>